<svg width="21" height="20" viewBox="0 0 21 20" fill="none" xmlns="http://www.w3.org/2000/svg">
<path fill-rule="evenodd" clip-rule="evenodd" d="M18.777 0.429965C19.0241 0.325956 19.2946 0.290084 19.5603 0.326082C19.826 0.362081 20.0771 0.468633 20.2877 0.63465C20.4982 0.800667 20.6604 1.02008 20.7574 1.27005C20.8543 1.52002 20.8825 1.79141 20.839 2.05597L18.571 15.813C18.351 17.14 16.895 17.901 15.678 17.24C14.66 16.687 13.148 15.835 11.788 14.946C11.108 14.501 9.02499 13.076 9.28099 12.062C9.50099 11.195 13.001 7.93697 15.001 5.99997C15.786 5.23897 15.428 4.79997 14.501 5.49997C12.199 7.23797 8.50299 9.88097 7.28099 10.625C6.20299 11.281 5.64099 11.393 4.96899 11.281C3.74299 11.077 2.60599 10.761 1.67799 10.376C0.423989 9.85597 0.484989 8.13197 1.67699 7.62997L18.777 0.429965Z" fill="#E06100"/>
</svg>
